<svg xmlns="http://www.w3.org/2000/svg" xmlns:xlink="http://www.w3.org/1999/xlink" width="456px" height="797px" viewBox="-2341.46 -1201.05 817.904 1429.22" preserveAspectRatio="xMidYMid meet"  ><rect id="svgEditorBackground" x="0" y="0" width="1620" height="840" style="fill:none; stroke: none;"/><defs id="svgEditorDefs"><polygon id="svgEditorShapeDefs" style="fill:khaki;stroke:black;vector-effect:non-scaling-stroke;stroke-width:1px;"/></defs><circle id="headBlack" cx="286" cy="149" style="fill:black;stroke:none;stroke-width:1px;" r="118.891" transform="matrix(1 0 0 1 -2172 -1172)" class="poppetje"/><ellipse id="bodyBlack" cx="288" cy="532" style="fill:black;stroke:none;stroke-width:1px;" rx="122.34" ry="271.548" class="poppetje" transform="matrix(1 0 0 1 -2172 -1172)"/><g id="g_e3_svg" transform="matrix(1 0 0 1 -2172 -1172)"/><ellipse id="legBlack" cx="212" cy="888" style="fill:black;stroke:black;stroke-width:1px;" rx="40" ry="156" transform="matrix(1.1134 0.0933779 -0.0933779 1.1134 -2112.16 -1291.14)"/><ellipse id="e14_ellipse" cx="640.18" cy="870.175" style="fill:black;stroke:black;stroke-width:1px;" rx="40" ry="156" transform="matrix(1.10984 -0.128966 0.128966 1.10984 -2665.36 -1163.7)"/><ellipse id="e15_ellipse" cx="241.104" cy="929.778" style="fill:black;stroke:black;stroke-width:1px;" rx="40" ry="156" transform="matrix(1.11692 -0.0294497 0.0294497 1.11692 -2264.54 -1030.28)"/><ellipse id="e1_ellipse" cx="367.939" cy="936.255" style="fill:black;stroke:black;stroke-width:1px;" rx="40" ry="156" transform="matrix(1.11692 -0.0294497 0.0294497 1.11692 -2264.54 -1030.28)"/><ellipse id="armBlack" cx="426" cy="320" style="fill:black;stroke:black;stroke-width:1px;" rx="132" ry="40" transform="matrix(0.936021 0.351944 -0.351944 0.936021 -2024.12 -1289.45)"/><ellipse id="e16_ellipse" cx="-76.982" cy="461.6" style="fill:black;stroke:black;stroke-width:1px;" rx="132" ry="40" transform="matrix(0.531939 -0.846783 0.846783 0.531939 -2340.56 -1095.21)"/><ellipse id="e17_ellipse" cx="-36.982" cy="501.6" style="fill:black;stroke:black;stroke-width:1px;" rx="132" ry="40" transform="matrix(0.531939 -0.846783 0.846783 0.531939 -2340.56 -1095.21)"/><ellipse id="e2_ellipse" cx="-121.778" cy="109.829" style="fill:black;stroke:black;stroke-width:1px;" rx="132" ry="40" transform="matrix(-0.941915 -0.335851 0.335851 -0.941915 -2295.93 -667.118)"/><ellipse id="e18_ellipse" cx="-1095.66" cy="426.642" style="fill:black;stroke:black;stroke-width:1px;" rx="132" ry="40" transform="matrix(0.346316 -0.938118 0.938118 0.346316 -1693.38 -1868.39)"/><ellipse id="handBlack" cx="-94" cy="376" style="fill:black;stroke:black;stroke-width:1px;" rx="42" ry="34" transform="matrix(1 0 0 1 -2172 -1172)"/><ellipse id="e3_ellipse" cx="448" cy="596" style="fill:black;stroke:black;stroke-width:1px;" rx="42" ry="34" transform="matrix(1 0 0 1 -2172 -1172)"/><ellipse id="footBlack" cx="158" cy="1320" style="fill:black;stroke:black;stroke-width:1px;" rx="80" ry="40" transform="matrix(1 0 0 1 -2172 -1172)"/><ellipse id="e4_ellipse" cx="406" cy="1324" style="fill:black;stroke:black;stroke-width:1px;" rx="80" ry="40" transform="matrix(1 0 0 1 -2172 -1172)"/><circle id="eye" cx="236" cy="136" style="fill:white;stroke:black;stroke-width:1px;" r="20.4162" transform="matrix(1 0 0 1 -2172 -1172)"/><circle id="e2_circle" cx="294" cy="137" style="fill:white;stroke:black;stroke-width:1px;" r="20.4162" transform="matrix(1 0 0 1 -2172 -1172)"/><path d="M-518.1958913584841,127.48429624658229c6.411000000000058,0,12.437000000000012,2.495999999999981,16.971000000000004,7.028999999999996c9.356999999999971,9.357,9.356999999999971,24.583,0,33.941l-48.971000000000004,48.971000000000004l-48.971000000000004,-48.971000000000004c-9.356999999999971,-9.357,-9.356999999999971,-24.583,0,-33.941c4.5330000000000155,-4.531999999999982,10.56000000000006,-7.028999999999996,16.971000000000004,-7.028999999999996s12.437000000000012,2.4960000000000093,16.971000000000004,7.028999999999996l15.028999999999996,15.028999999999996l15.02800000000002,-15.028999999999996c4.533999999999992,-4.531999999999982,10.561000000000035,-7.028999999999996,16.97199999999998,-7.028999999999996ZM-518.1958913584841,119.48429624658229c-8.188999999999965,0,-16.37900000000002,3.1239999999999952,-22.627000000000066,9.37299999999999l-9.372999999999934,9.37299999999999l-9.373000000000047,-9.37299999999999c-6.249000000000024,-6.2479999999999905,-14.437999999999988,-9.37299999999999,-22.62799999999993,-9.37299999999999s-16.37900000000002,3.1239999999999952,-22.628000000000043,9.37299999999999c-12.496999999999957,12.497000000000014,-12.496999999999957,32.75800000000001,0,45.254999999999995l54.62699999999995,54.62700000000001l54.62800000000004,-54.62700000000001c12.497000000000014,-12.496999999999986,12.497000000000014,-32.75799999999998,0,-45.254999999999995c-6.248999999999967,-6.248000000000005,-14.437999999999988,-9.37299999999999,-22.626999999999953,-9.37299999999999v0Z" style="fill:red; stroke:red; vector-effect:non-scaling-stroke;stroke-width:1px;" id="heart" transform="matrix(0.968746 0 0 0.968746 -1351 -907.75)"/></svg>